<svg xmlns="http://www.w3.org/2000/svg" width="46" height="32.5" viewBox="0 0 46 32.5">
  <path id="Icon_awesome-money-check-alt" data-name="Icon awesome-money-check-alt" d="M42.75,2.25H2.25A2.25,2.25,0,0,0,0,4.5v27a2.25,2.25,0,0,0,2.25,2.25h40.5A2.25,2.25,0,0,0,45,31.5V4.5A2.25,2.25,0,0,0,42.75,2.25Zm-30.375,20.8v1.133a.562.562,0,0,1-.562.563H10.688a.562.562,0,0,1-.562-.562V23.042a4.026,4.026,0,0,1-2.206-.8.563.563,0,0,1-.04-.854l.826-.788a.577.577,0,0,1,.712-.051,1.693,1.693,0,0,0,.9.262H12.3a.884.884,0,0,0,.83-.927.918.918,0,0,0-.617-.9l-3.164-.949a3.182,3.182,0,0,1-2.22-3.051,3.131,3.131,0,0,1,3-3.169V10.688a.562.562,0,0,1,.563-.562h1.125a.562.562,0,0,1,.563.563v1.145a4.021,4.021,0,0,1,2.206.8.563.563,0,0,1,.04.854l-.826.788a.577.577,0,0,1-.712.051,1.687,1.687,0,0,0-.9-.262H10.2a.884.884,0,0,0-.83.927.918.918,0,0,0,.617.9l3.164.949a3.182,3.182,0,0,1,2.22,3.051A3.131,3.131,0,0,1,12.375,23.054ZM29.25,21.938a.562.562,0,0,1-.562.563H20.813a.562.562,0,0,1-.562-.562V20.813a.562.562,0,0,1,.563-.562h7.875a.562.562,0,0,1,.563.563Zm11.25,0a.562.562,0,0,1-.562.563H34.313a.562.562,0,0,1-.562-.562V20.813a.562.562,0,0,1,.563-.562h5.625a.562.562,0,0,1,.563.563Zm0-6.75a.562.562,0,0,1-.562.563H20.813a.562.562,0,0,1-.562-.562V14.063a.562.562,0,0,1,.563-.562H39.938a.562.562,0,0,1,.563.563Z" transform="translate(0.5 -1.75)" fill="none" stroke="#002a3a" stroke-linejoin="round" stroke-width="1"/>
</svg>
