<svg xmlns="http://www.w3.org/2000/svg" width="46.001" height="32.5" viewBox="0 0 46.001 32.5">
  <path id="Icon_awesome-money-bill-wave-alt" data-name="Icon awesome-money-bill-wave-alt" d="M43.675,3.829A20.822,20.822,0,0,0,35.49,2.25c-8.66,0-17.32,4.383-25.98,4.383A21.333,21.333,0,0,1,3,5.669a2.4,2.4,0,0,0-.728-.114A2.237,2.237,0,0,0,0,7.791V30.1A2.236,2.236,0,0,0,1.325,32.17,20.81,20.81,0,0,0,9.51,33.75c8.66,0,17.321-4.384,25.981-4.384a21.333,21.333,0,0,1,6.514.965,2.4,2.4,0,0,0,.728.114A2.237,2.237,0,0,0,45,28.208V5.9a2.239,2.239,0,0,0-1.325-2.072ZM22.5,24.75c-3.107,0-5.625-3.023-5.625-6.75s2.519-6.75,5.625-6.75,5.625,3.022,5.625,6.75S25.606,24.75,22.5,24.75Z" transform="translate(0.5 -1.75)" fill="none" stroke="#002a3a" stroke-linejoin="round" stroke-width="1"/>
</svg>
