<svg width="100" height="100" class="css-1j8o68f" style="background-color: rgb(255, 240, 0);" xmlns="http://www.w3.org/2000/svg">
    <defs id="SvgjsDefs5206"></defs>
    <rect x="7.612" y="2.517" width="60" height="60" style="fill: rgb(255, 252, 82);"></rect>
    <g id="SvgjsG5207" featurekey="symbolFeature-0" transform="matrix(1.080109, 0, 0, 1.080109, 11.767153, 7.608249)" fill="#000000" style="">
      <title xmlns="http://www.w3.org/2000/svg">2-life</title>
      <path xmlns="http://www.w3.org/2000/svg" d="M44.44,8V4.44H42V1.6H28.44V4.44H25.6V8H22.4V4.44H19.2V1.6H6V4.44H3.2V8H0V20.8H3.2v6.4H6v3.56h3.2V34H12.8V36.8H16V40h3.2v3.2h3.2v3.2h3.2V43.2h2.84V40H32V36.8h3.56V34H38.4v-3.2H42V27.2h2.48V20.8H48V8ZM16,8H9.6V20.44H6V8H9.6V4.44H16Z" style=""></path>
    </g>
    <g id="SvgjsG5208" featurekey="nameFeature-0" transform="matrix(1.35,0,0,1.35,50,114)" fill="#000000">
      <path d=""></path>
    </g>
    <g id="SvgjsG5209" featurekey="nameFeature-1" transform="matrix(1.35,0,0,1.35,50,124)" fill="#000000">
      <path d=""></path>
    </g>
  </svg>
