<svg xmlns="http://www.w3.org/2000/svg" xmlns:xlink="http://www.w3.org/1999/xlink" width="125" height="38" viewBox="0 0 125 38">
  <defs>
    <clipPath id="clip-Artboard_3">
      <rect width="125" height="38"/>
    </clipPath>
  </defs>
  <g id="Artboard_3" data-name="Artboard – 3" clip-path="url(#clip-Artboard_3)">
    <path id="Path_17" data-name="Path 17" d="M12.06-12.636V0H8.982V-5.2H4.194V0H1.116V-12.636H4.194v4.95H8.982v-4.95ZM18.846.144a5.544,5.544,0,0,1-2.655-.63,4.613,4.613,0,0,1-1.854-1.8,5.379,5.379,0,0,1-.675-2.736,5.335,5.335,0,0,1,.684-2.727,4.641,4.641,0,0,1,1.872-1.809,5.6,5.6,0,0,1,2.664-.63,5.6,5.6,0,0,1,2.664.63,4.641,4.641,0,0,1,1.872,1.809A5.335,5.335,0,0,1,24.1-5.022,5.281,5.281,0,0,1,23.409-2.3a4.686,4.686,0,0,1-1.89,1.809A5.65,5.65,0,0,1,18.846.144Zm0-2.664a2.005,2.005,0,0,0,1.5-.648,2.574,2.574,0,0,0,.621-1.854,2.622,2.622,0,0,0-.6-1.854,1.949,1.949,0,0,0-1.485-.648,1.953,1.953,0,0,0-1.494.639,2.642,2.642,0,0,0-.594,1.863,2.674,2.674,0,0,0,.585,1.854A1.893,1.893,0,0,0,18.846-2.52Zm8.442-8.568a1.866,1.866,0,0,1-1.323-.477,1.546,1.546,0,0,1-.513-1.179,1.566,1.566,0,0,1,.513-1.2,1.866,1.866,0,0,1,1.323-.477,1.841,1.841,0,0,1,1.305.477,1.566,1.566,0,0,1,.513,1.2,1.546,1.546,0,0,1-.513,1.179A1.841,1.841,0,0,1,27.288-11.088Zm1.53,1.044V0H25.74V-10.044ZM44.5-8.568a4.069,4.069,0,0,1-.5,2.007,3.706,3.706,0,0,1-1.548,1.467,5.45,5.45,0,0,1-2.592.558H37.944V0H34.866V-12.636h4.986a5.674,5.674,0,0,1,2.556.522,3.588,3.588,0,0,1,1.566,1.44A4.185,4.185,0,0,1,44.5-8.568ZM39.618-6.984A1.836,1.836,0,0,0,40.932-7.4a1.544,1.544,0,0,0,.432-1.17,1.544,1.544,0,0,0-.432-1.17,1.836,1.836,0,0,0-1.314-.414H37.944v3.168ZM50.67.144a5.544,5.544,0,0,1-2.655-.63,4.613,4.613,0,0,1-1.854-1.8,5.379,5.379,0,0,1-.675-2.736,5.335,5.335,0,0,1,.684-2.727,4.641,4.641,0,0,1,1.872-1.809,5.6,5.6,0,0,1,2.664-.63,5.6,5.6,0,0,1,2.664.63,4.641,4.641,0,0,1,1.872,1.809,5.335,5.335,0,0,1,.684,2.727A5.281,5.281,0,0,1,55.233-2.3a4.686,4.686,0,0,1-1.89,1.809A5.65,5.65,0,0,1,50.67.144Zm0-2.664a2.005,2.005,0,0,0,1.5-.648,2.574,2.574,0,0,0,.621-1.854,2.622,2.622,0,0,0-.6-1.854,1.949,1.949,0,0,0-1.485-.648,1.953,1.953,0,0,0-1.494.639,2.642,2.642,0,0,0-.594,1.863A2.674,2.674,0,0,0,49.2-3.168,1.893,1.893,0,0,0,50.67-2.52Zm9.972-10.8V0H57.564V-13.32Zm5.31,0V0H62.874V-13.32ZM72.756.144A5.544,5.544,0,0,1,70.1-.486a4.613,4.613,0,0,1-1.854-1.8,5.379,5.379,0,0,1-.675-2.736,5.335,5.335,0,0,1,.684-2.727,4.641,4.641,0,0,1,1.872-1.809,5.6,5.6,0,0,1,2.664-.63,5.6,5.6,0,0,1,2.664.63,4.641,4.641,0,0,1,1.872,1.809,5.335,5.335,0,0,1,.684,2.727A5.281,5.281,0,0,1,77.319-2.3a4.686,4.686,0,0,1-1.89,1.809A5.65,5.65,0,0,1,72.756.144Zm0-2.664a2.005,2.005,0,0,0,1.5-.648,2.574,2.574,0,0,0,.621-1.854,2.622,2.622,0,0,0-.6-1.854,1.949,1.949,0,0,0-1.485-.648,1.953,1.953,0,0,0-1.494.639A2.642,2.642,0,0,0,70.7-5.022a2.674,2.674,0,0,0,.585,1.854A1.893,1.893,0,0,0,72.756-2.52ZM81.2-11.088a1.866,1.866,0,0,1-1.323-.477,1.546,1.546,0,0,1-.513-1.179,1.566,1.566,0,0,1,.513-1.2,1.866,1.866,0,0,1,1.323-.477,1.841,1.841,0,0,1,1.305.477,1.566,1.566,0,0,1,.513,1.2,1.546,1.546,0,0,1-.513,1.179A1.841,1.841,0,0,1,81.2-11.088Zm1.53,1.044V0H79.65V-10.044Z" transform="translate(34 26)" fill="#002c56"/>
    <circle id="Ellipse_24" data-name="Ellipse 24" cx="10" cy="10" r="10" transform="translate(10 10)" fill="#ff6310"/>
  </g>
</svg>
